<svg xmlns="http://www.w3.org/2000/svg" viewBox="0 0 512 512"><rect width="512" height="512" rx="112" ry="112" fill="#0a0a0a"/><g transform="translate(60.00,354.42) scale(0.28121,-0.28121)"><path fill="#f0f0f0" d="M88 0Q78 0 70.0 7.5Q62 15 62 26V674Q62 685 70.0 692.5Q78 700 88 700H570Q581 700 589.0 692.5Q597 685 597 674V547Q597 537 589.0 529.0Q581 521 570 521H273V411H550Q561 411 569.0 403.5Q577 396 577 385V259Q577 248 569.0 240.5Q561 233 550 233H273V26Q273 15 265.5 7.5Q258 0 247 0Z"/><g transform="translate(658,0)"><path fill="#e86a1a" d="M367 -10Q268 -10 197.0 20.5Q126 51 86.0 112.0Q46 173 43 263Q42 305 42.0 353.5Q42 402 43 445Q46 532 86.5 591.0Q127 650 199.0 680.0Q271 710 367 710Q444 710 504.0 692.0Q564 674 606.5 643.0Q649 612 671.5 573.5Q694 535 695 494Q695 485 688.5 479.0Q682 473 673 473H489Q479 473 473.0 476.0Q467 479 462 485Q457 495 446.5 508.0Q436 521 417.0 530.5Q398 540 367 540Q320 540 294.0 516.0Q268 492 266 440Q263 356 266 268Q268 211 295.5 185.5Q323 160 370 160Q401 160 425.5 170.0Q450 180 464.0 201.5Q478 223 478 257V267H407Q396 267 388.5 275.0Q381 283 381 293V386Q381 397 388.5 404.5Q396 412 407 412H670Q681 412 689.0 404.5Q697 397 697 386V264Q697 176 655.0 115.0Q613 54 539.0 22.0Q465 -10 367 -10Z"/></g></g></svg>
